<svg width="114" height="25" viewBox="0 0 114 25" fill="none" xmlns="http://www.w3.org/2000/svg">
<rect width="114" height="25" fill="#434242"/>
<path d="M14.744 18C14.368 17.32 13.744 16.28 12.872 14.88L11.468 16.272V18H8.48C8.544 16.448 8.576 14.996 8.576 13.644C8.576 12.292 8.544 10.84 8.48 9.288H11.468V12.804C12.94 11.348 13.988 10.176 14.612 9.288H18.5L14.72 13.032C15.28 13.816 15.908 14.668 16.604 15.588C17.308 16.508 17.944 17.312 18.512 18H14.744ZM29.5402 9.3C29.4842 10.652 29.4562 12.1 29.4562 13.644C29.4562 15.196 29.4842 16.648 29.5402 18H25.2442L22.3402 11.448L22.5562 18H19.4722C19.5362 16.448 19.5682 14.996 19.5682 13.644C19.5682 12.3 19.5362 10.852 19.4722 9.3H23.8882L26.8042 16.032L26.6002 9.3H29.5402ZM37.4715 11.676C36.5195 11.628 35.8155 11.6 35.3595 11.592V15.696C35.8235 15.688 36.5275 15.66 37.4715 15.612V18H30.4995V15.612C31.4195 15.66 32.1195 15.688 32.5995 15.696V11.592C32.1195 11.6 31.4195 11.628 30.4995 11.676V9.288H37.4715V11.676ZM43.7131 18.12C41.9051 18.12 40.5731 17.736 39.7171 16.968C38.8611 16.2 38.4331 15.104 38.4331 13.68C38.4331 12.248 38.8611 11.116 39.7171 10.284C40.5731 9.452 41.9051 9.036 43.7131 9.036C46.2411 9.036 47.9331 9.904 48.7891 11.64C48.0691 11.888 47.2251 12.26 46.2571 12.756C46.0251 12.308 45.6571 11.976 45.1531 11.76C44.6571 11.544 44.1491 11.436 43.6291 11.436C42.8611 11.436 42.2891 11.64 41.9131 12.048C41.5371 12.448 41.3491 12.944 41.3491 13.536C41.3491 14.176 41.5491 14.7 41.9491 15.108C42.3571 15.508 42.9771 15.708 43.8091 15.708C44.4731 15.708 45.0011 15.6 45.3931 15.384C45.7851 15.16 46.0731 14.808 46.2571 14.328C46.9131 14.68 47.7531 15.076 48.7771 15.516C48.3771 16.484 47.7091 17.16 46.7731 17.544C45.8371 17.928 44.8171 18.12 43.7131 18.12ZM56.0174 18C55.6414 17.32 55.0174 16.28 54.1454 14.88L52.7414 16.272V18H49.7534C49.8174 16.448 49.8494 14.996 49.8494 13.644C49.8494 12.292 49.8174 10.84 49.7534 9.288H52.7414V12.804C54.2134 11.348 55.2614 10.176 55.8854 9.288H59.7734L55.9934 13.032C56.5534 13.816 57.1814 14.668 57.8774 15.588C58.5814 16.508 59.2174 17.312 59.7854 18H56.0174ZM60.7456 16.968C61.0176 16.56 61.2416 16.18 61.4176 15.828C61.6016 15.476 61.7776 15.068 61.9456 14.604C62.5136 14.932 63.1736 15.188 63.9256 15.372C64.6776 15.556 65.3776 15.648 66.0256 15.648C66.6896 15.648 67.1576 15.592 67.4296 15.48C67.7016 15.36 67.8376 15.232 67.8376 15.096C67.8376 14.608 67.0936 14.364 65.6056 14.364C63.9736 14.364 62.7896 14.196 62.0536 13.86C61.3176 13.516 60.9496 12.964 60.9496 12.204C60.9496 11.124 61.3976 10.328 62.2936 9.816C63.1896 9.304 64.3536 9.048 65.7856 9.048C66.6176 9.048 67.4696 9.156 68.3416 9.372C69.2216 9.58 70.0136 9.868 70.7176 10.236C70.4856 10.764 70.2416 11.408 69.9856 12.168C69.9376 12.328 69.8976 12.448 69.8656 12.528C69.4576 12.2 68.8416 11.928 68.0176 11.712C67.1936 11.488 66.4656 11.376 65.8336 11.376C65.0736 11.376 64.5616 11.428 64.2976 11.532C64.0336 11.628 63.9016 11.772 63.9016 11.964C63.9016 12.156 64.0816 12.312 64.4416 12.432C64.8096 12.544 65.3376 12.6 66.0256 12.6C67.7216 12.6 68.9536 12.796 69.7216 13.188C70.4896 13.572 70.8736 14.164 70.8736 14.964C70.8736 16.084 70.4656 16.892 69.6496 17.388C68.8336 17.876 67.5976 18.12 65.9416 18.12C65.0536 18.12 64.1496 18.024 63.2296 17.832C62.3096 17.632 61.4816 17.344 60.7456 16.968ZM81.2659 13.668C83.0899 13.668 84.0019 14.248 84.0019 15.408C84.0019 15.952 83.8779 16.416 83.6299 16.8C83.3819 17.176 82.9379 17.472 82.2979 17.688C81.6579 17.896 80.7699 18 79.6339 18H74.2339C74.2979 16.448 74.3299 14.996 74.3299 13.644C74.3299 12.292 74.2979 10.84 74.2339 9.288H77.0539V9.3H79.6099C80.6019 9.3 81.3819 9.384 81.9499 9.552C82.5259 9.712 82.9299 9.948 83.1619 10.26C83.4019 10.572 83.5219 10.968 83.5219 11.448C83.5219 11.936 83.3499 12.372 83.0059 12.756C82.6699 13.132 82.0899 13.436 81.2659 13.668ZM77.0539 11.484V12.6H79.3579C79.8539 12.6 80.1979 12.556 80.3899 12.468C80.5899 12.38 80.6899 12.22 80.6899 11.988C80.6899 11.804 80.5859 11.676 80.3779 11.604C80.1779 11.524 79.8379 11.484 79.3579 11.484H77.0539ZM79.3579 15.804C79.7739 15.804 80.0899 15.788 80.3059 15.756C80.5299 15.716 80.6899 15.652 80.7859 15.564C80.8819 15.468 80.9299 15.34 80.9299 15.18C80.9299 14.972 80.8139 14.824 80.5819 14.736C80.3579 14.64 79.9499 14.592 79.3579 14.592H77.0539V15.804H79.3579ZM91.8137 18C91.6617 17.544 91.4577 16.972 91.2017 16.284H87.3737L86.7737 18H83.7617L87.1217 9.288H91.5377L94.9217 18H91.8137ZM90.5177 14.412C90.2137 13.572 89.9017 12.732 89.5817 11.892L89.2937 11.112C89.0137 11.84 88.6017 12.94 88.0577 14.412H90.5177ZM105.198 12.192C105.198 12.888 105.026 13.476 104.682 13.956C104.346 14.436 103.766 14.784 102.942 15C103.038 15.128 103.106 15.228 103.146 15.3L105.09 18H101.826C101.474 17.344 100.918 16.416 100.158 15.216H98.394V18H95.562C95.626 16.448 95.658 14.996 95.658 13.644C95.658 12.292 95.626 10.84 95.562 9.288H98.394V9.3H100.854C102.47 9.3 103.598 9.56 104.238 10.08C104.878 10.6 105.198 11.304 105.198 12.192ZM98.394 11.604V12.972H100.014C100.694 12.972 101.206 12.952 101.55 12.912C101.902 12.864 102.146 12.792 102.282 12.696C102.418 12.6 102.486 12.46 102.486 12.276C102.486 12.1 102.422 11.964 102.294 11.868C102.166 11.772 101.926 11.704 101.574 11.664C101.222 11.624 100.702 11.604 100.014 11.604H98.394Z" fill="#D9D9D9"/>
</svg>
